<mxfile host="app.diagrams.net" modified="2022-12-17T21:26:06.382Z" agent="5.0 (Macintosh; Intel Mac OS X 10_15_7) AppleWebKit/537.36 (KHTML, like Gecko) Chrome/108.0.0.0 Safari/537.36" etag="rONnq7TkCYZuw1rfDzVE" version="20.2.5" type="github">
  <diagram id="VK3RTZsQUqMUPThRABeq" name="Seite-1">
    <mxGraphModel dx="1972" dy="934" grid="1" gridSize="10" guides="1" tooltips="1" connect="1" arrows="1" fold="1" page="1" pageScale="1" pageWidth="827" pageHeight="1169" math="0" shadow="0">
      <root>
        <mxCell id="0" />
        <mxCell id="1" parent="0" />
      </root>
    </mxGraphModel>
  </diagram>
</mxfile>
